# xmcd
#
# Track frame offsets:
#	150
#	39371
#	70180
#	94340
#	120923
#	141247
#	182349
#	217626
#	258509
#	296772
#
# Disc length: 4617 seconds
#
# Revision: 11
# Processed by: cddbd v1.5.2PL0 Copyright (c) Steve Scherf et al.
# Submitted via: Jack! The Knife 20 Magnifico
#
DISCID=8912070a
DTITLE=Iron Maiden - The Final Frontier
DYEAR=2010
DGENRE=Metal
TTITLE0=Satellite 15... The Final Frontier
TTITLE1=El Dorado
TTITLE2=Mother Of Mercy
TTITLE3=Coming Home
TTITLE4=The Alchemist
TTITLE5=Isle Of Avalon
TTITLE6=Starblind
TTITLE7=The Talisman
TTITLE8=The Man Who Would Be King
TTITLE9=When The Wild Wind Blows
EXTD=Kevin "Caveman" Shirley
EXTT0=Smith, Harris
EXTT1=Dickinson, Smith, Harris
EXTT2=Smith, Harris
EXTT3=Dickinson, Smith, Harris
EXTT4=Dickinson, Gers, Harris
EXTT5=Smith, Harris
EXTT6=Dickinson, Smith, Harris
EXTT7=Gers, Harris
EXTT8=Murray, Harris
EXTT9=Steve Harris
PLAYORDER=
